<svg width="69" height="13" viewBox="0 0 69 13" fill="none" xmlns="http://www.w3.org/2000/svg">
<path d="M21.6538 7.09424V10H20.2949V2.17969H23.2866C24.1603 2.17969 24.8532 2.40706 25.3652 2.86182C25.8809 3.31657 26.1387 3.91813 26.1387 4.6665C26.1387 5.43278 25.8862 6.02897 25.3813 6.45508C24.88 6.88118 24.1764 7.09424 23.2705 7.09424H21.6538ZM21.6538 6.00391H23.2866C23.77 6.00391 24.1388 5.89111 24.3931 5.66553C24.6473 5.43636 24.7744 5.10693 24.7744 4.67725C24.7744 4.25472 24.6455 3.91813 24.3877 3.66748C24.1299 3.41325 23.7754 3.28255 23.3242 3.27539H21.6538V6.00391ZM28.6899 8.91504H32.2402V10H27.3311V2.17969H28.6899V8.91504ZM37.7671 8.1792H34.7378L34.104 10H32.6914L35.6455 2.17969H36.8647L39.8242 10H38.4062L37.7671 8.1792ZM35.1191 7.0835H37.3857L36.2524 3.83936L35.1191 7.0835ZM42.4614 5.88574L44.2607 2.17969H45.7646L43.1436 7.12109V10H41.7793V7.12109L39.1528 2.17969H40.6621L42.4614 5.88574ZM53.73 8.1792H50.7007L50.0669 10H48.6543L51.6084 2.17969H52.8276L55.7871 10H54.3691L53.73 8.1792ZM51.082 7.0835H53.3486L52.2153 3.83936L51.082 7.0835ZM58.0376 8.91504H61.5879V10H56.6787V2.17969H58.0376V8.91504ZM63.9888 8.91504H67.5391V10H62.6299V2.17969H63.9888V8.91504Z" fill="#9A9A9A"/>
<path d="M0 12V0L8.5 6L0 12Z" fill="#9A9A9A"/>
</svg>
