<svg width="24" height="24" viewBox="0 0 24 24" fill="none" xmlns="http://www.w3.org/2000/svg">
<mask id="path-1-inside-1_1226_244" fill="white">
<path fill-rule="evenodd" clip-rule="evenodd" d="M7.34302 0.214355H11.7985L11.8561 0.311458L14.3184 4.46291L14.3202 4.46601L15.0762 5.76199H10.5477L9.31109 3.64203L7.34302 0.214355ZM0.365098 5.76199C0.895104 3.25012 2.772 1.23483 5.20485 0.507036L7.57837 4.64088L7.57835 4.64089L7.58181 4.64682L8.23233 5.76199H0.365098ZM0.214233 16.7858V7.76199H9.94219H23.7857V16.7858C23.7857 20.6518 20.6517 23.7858 16.7857 23.7858H7.21424C3.34824 23.7858 0.214233 20.6518 0.214233 16.7858ZM16.7857 0.214355C20.1537 0.214355 22.9661 2.59298 23.6348 5.76199H17.3916L17.3536 5.6969L16.0441 3.452L16.0441 3.45199L16.0404 3.44574L14.1238 0.214355H16.7857ZM10.9063 10.7576C10.249 10.3985 9.44474 10.8628 9.4271 11.6116L9.29082 17.3975C9.27245 18.1776 10.1148 18.6772 10.7905 18.287L16.0056 15.2761C16.6814 14.8859 16.6699 13.9066 15.9851 13.5325L10.9063 10.7576Z"/>
</mask>
<path fill-rule="evenodd" clip-rule="evenodd" d="M7.34302 0.214355H11.7985L11.8561 0.311458L14.3184 4.46291L14.3202 4.46601L15.0762 5.76199H10.5477L9.31109 3.64203L7.34302 0.214355ZM0.365098 5.76199C0.895104 3.25012 2.772 1.23483 5.20485 0.507036L7.57837 4.64088L7.57835 4.64089L7.58181 4.64682L8.23233 5.76199H0.365098ZM0.214233 16.7858V7.76199H9.94219H23.7857V16.7858C23.7857 20.6518 20.6517 23.7858 16.7857 23.7858H7.21424C3.34824 23.7858 0.214233 20.6518 0.214233 16.7858ZM16.7857 0.214355C20.1537 0.214355 22.9661 2.59298 23.6348 5.76199H17.3916L17.3536 5.6969L16.0441 3.452L16.0441 3.45199L16.0404 3.44574L14.1238 0.214355H16.7857ZM10.9063 10.7576C10.249 10.3985 9.44474 10.8628 9.4271 11.6116L9.29082 17.3975C9.27245 18.1776 10.1148 18.6772 10.7905 18.287L16.0056 15.2761C16.6814 14.8859 16.6699 13.9066 15.9851 13.5325L10.9063 10.7576Z" fill="black"/>
<path d="M11.7985 0.214355L13.5187 -0.805918L12.9376 -1.78564H11.7985V0.214355ZM7.34302 0.214355V-1.78564H3.88845L5.60859 1.21022L7.34302 0.214355ZM11.8561 0.311458L13.5762 -0.708814V-0.708815L11.8561 0.311458ZM14.3184 4.46291L16.0386 3.44277L16.0385 3.44264L14.3184 4.46291ZM14.3202 4.46601L16.0478 3.4583L16.0441 3.45207L16.0405 3.44587L14.3202 4.46601ZM15.0762 5.76199V7.76199H18.5582L16.8037 4.75428L15.0762 5.76199ZM10.5477 5.76199L8.82018 6.76974L9.399 7.76199H10.5477V5.76199ZM9.31109 3.64203L7.57662 4.63791L7.58353 4.64977L9.31109 3.64203ZM5.20485 0.507036L6.93928 -0.488825L6.15009 -1.86331L4.63164 -1.40906L5.20485 0.507036ZM0.365098 5.76199L-1.59181 5.34909L-2.10094 7.76199H0.365098V5.76199ZM7.57837 4.64088L8.57065 6.37736L10.3107 5.38304L9.31281 3.64502L7.57837 4.64088ZM7.57835 4.64089L6.58608 2.9044L4.83414 3.90551L5.85073 5.64851L7.57835 4.64089ZM7.58181 4.64682L5.85418 5.65444L5.85426 5.65456L7.58181 4.64682ZM8.23233 5.76199V7.76199H11.7144L9.95989 4.75425L8.23233 5.76199ZM0.214233 7.76199V5.76199H-1.78577V7.76199H0.214233ZM23.7857 7.76199H25.7857V5.76199H23.7857V7.76199ZM23.6348 5.76199V7.76199H26.1008L25.5917 5.34909L23.6348 5.76199ZM17.3916 5.76199L15.664 6.76972L16.2428 7.76199H17.3916V5.76199ZM17.3536 5.6969L19.0812 4.68917L19.0811 4.68916L17.3536 5.6969ZM16.0441 3.452L15.0363 1.72444L13.3088 2.73219L14.3165 4.45974L16.0441 3.452ZM16.0441 3.45199L17.0518 5.17955L18.7919 4.16449L17.7643 2.43178L16.0441 3.45199ZM16.0404 3.44574L17.7606 2.42553L17.7606 2.42546L16.0404 3.44574ZM14.1238 0.214355V-1.78564H10.6122L12.4036 1.23463L14.1238 0.214355ZM9.4271 11.6116L7.42765 11.5645V11.5645L9.4271 11.6116ZM10.9063 10.7576L11.8652 9.0025L11.8652 9.0025L10.9063 10.7576ZM9.29082 17.3975L7.29138 17.3504L9.29082 17.3975ZM10.7905 18.287L9.79054 16.555L9.79054 16.555L10.7905 18.287ZM16.0056 15.2761L15.0056 13.544H15.0056L16.0056 15.2761ZM15.9851 13.5325L16.9441 11.7774V11.7774L15.9851 13.5325ZM11.7985 -1.78564H7.34302V2.21436H11.7985V-1.78564ZM13.5762 -0.708815L13.5187 -0.805918L10.0783 1.23463L10.1359 1.33173L13.5762 -0.708815ZM16.0385 3.44264L13.5762 -0.708814L10.1359 1.33173L12.5982 5.48318L16.0385 3.44264ZM16.0405 3.44587L16.0386 3.44277L12.5981 5.48305L12.5999 5.48615L16.0405 3.44587ZM16.8037 4.75428L16.0478 3.4583L12.5926 5.47372L13.3486 6.76971L16.8037 4.75428ZM10.5477 7.76199H15.0762V3.76199H10.5477V7.76199ZM7.58353 4.64977L8.82018 6.76974L12.2753 4.75425L11.0387 2.63428L7.58353 4.64977ZM5.60859 1.21022L7.57666 4.63789L11.0455 2.64617L9.07746 -0.781506L5.60859 1.21022ZM4.63164 -1.40906C1.50248 -0.472971 -0.909447 2.11512 -1.59181 5.34909L2.32201 6.1749C2.69965 4.38512 4.04151 2.94262 5.77805 2.42314L4.63164 -1.40906ZM9.31281 3.64502L6.93928 -0.488825L3.47041 1.5029L5.84394 5.63674L9.31281 3.64502ZM8.57063 6.37738L8.57065 6.37736L6.5861 2.90439L6.58608 2.9044L8.57063 6.37738ZM9.30944 3.6392L9.30598 3.63327L5.85073 5.64851L5.85418 5.65444L9.30944 3.6392ZM9.95989 4.75425L9.30937 3.63908L5.85426 5.65456L6.50477 6.76974L9.95989 4.75425ZM0.365098 7.76199H8.23233V3.76199H0.365098V7.76199ZM-1.78577 7.76199V16.7858H2.21423V7.76199H-1.78577ZM9.94219 5.76199H0.214233V9.762H9.94219V5.76199ZM23.7857 5.76199H9.94219V9.762H23.7857V5.76199ZM25.7857 16.7858V7.76199H21.7857V16.7858H25.7857ZM16.7857 25.7858C21.7562 25.7858 25.7857 21.7563 25.7857 16.7858H21.7857C21.7857 19.5472 19.5471 21.7858 16.7857 21.7858V25.7858ZM7.21424 25.7858H16.7857V21.7858H7.21424V25.7858ZM-1.78577 16.7858C-1.78577 21.7563 2.24368 25.7858 7.21424 25.7858V21.7858C4.45281 21.7858 2.21423 19.5472 2.21423 16.7858H-1.78577ZM25.5917 5.34909C24.7319 1.27397 21.1184 -1.78564 16.7857 -1.78564V2.21436C19.189 2.21436 21.2004 3.91199 21.6779 6.1749L25.5917 5.34909ZM17.3916 7.76199H23.6348V3.76199H17.3916V7.76199ZM15.626 6.70463L15.664 6.76972L19.1191 4.75427L19.0812 4.68917L15.626 6.70463ZM14.3165 4.45974L15.626 6.70464L19.0811 4.68916L17.7716 2.44426L14.3165 4.45974ZM15.0363 1.72443L15.0363 1.72444L17.0518 5.17956L17.0518 5.17955L15.0363 1.72443ZM14.3202 4.46594L14.3239 4.4722L17.7643 2.43178L17.7606 2.42553L14.3202 4.46594ZM12.4036 1.23463L14.3202 4.46601L17.7606 2.42546L15.844 -0.805917L12.4036 1.23463ZM16.7857 -1.78564H14.1238V2.21436H16.7857V-1.78564ZM11.4265 11.6587C11.4089 12.4075 10.6047 12.8719 9.94735 12.5127L11.8652 9.0025C9.89334 7.92512 7.48057 9.31813 7.42765 11.5645L11.4265 11.6587ZM11.2903 17.4446L11.4265 11.6587L7.42765 11.5645L7.29138 17.3504L11.2903 17.4446ZM9.79054 16.555C10.4663 16.1648 11.3086 16.6645 11.2903 17.4446L7.29138 17.3504C7.23626 19.6906 9.76325 21.1896 11.7905 20.0191L9.79054 16.555ZM15.0056 13.544L9.79054 16.555L11.7905 20.0191L17.0056 17.0082L15.0056 13.544ZM15.0262 15.2876C14.3414 14.9135 14.3299 13.9342 15.0056 13.544L17.0056 17.0082C19.0329 15.8377 18.9983 12.8998 16.9441 11.7774L15.0262 15.2876ZM9.94735 12.5127L15.0262 15.2876L16.9441 11.7774L11.8652 9.0025L9.94735 12.5127Z" fill="black" mask="url(#path-1-inside-1_1226_244)"/>
</svg>
