<svg width="36" height="36" viewBox="0 0 36 36" fill="none" xmlns="http://www.w3.org/2000/svg">
<g clip-path="url(#clip0_1547_460)">
<path d="M18 36C27.9411 36 36 27.9411 36 18C36 8.05888 27.9411 0 18 0C8.05888 0 0 8.05888 0 18C0 27.9411 8.05888 36 18 36Z" fill="#3C5A9A"/>
<path d="M23.8521 5.52515H19.8646C17.4983 5.52515 14.8664 6.52037 14.8664 9.9504C14.8779 11.1455 14.8664 12.2902 14.8664 13.5783H12.1289V17.9344H14.9511V30.475H20.137V17.8517H23.5599L23.8696 13.5661H20.0476C20.0476 13.5661 20.0562 11.6597 20.0476 11.1061C20.0476 9.75059 21.458 9.82822 21.5429 9.82822C22.214 9.82822 23.519 9.83017 23.854 9.82822V5.52515H23.8521Z" fill="white"/>
</g>
<defs>
<clipPath id="clip0_1547_460">
<rect width="36" height="36" fill="white"/>
</clipPath>
</defs>
</svg>
