<svg width="26" height="26" viewBox="0 0 26 26" fill="none" xmlns="http://www.w3.org/2000/svg">
<path d="M9.05422 0.846362C5.92222 1.91916 3.25102 4.26636 1.76782 7.22556C1.24942 8.24796 0.875016 9.33516 0.651816 10.4584C0.0830158 13.252 0.479016 16.2256 1.76782 18.7744C2.60302 20.4376 3.80542 21.9136 5.25982 23.0656C6.63502 24.16 8.23342 24.9664 9.93262 25.42C12.071 25.996 14.3534 25.9816 16.5134 25.492C18.4646 25.0456 20.3078 24.1096 21.7766 22.756C23.3318 21.3232 24.4406 19.444 25.031 17.4208C25.6718 15.2104 25.7582 12.856 25.355 10.5952C21.323 10.5952 17.291 10.5952 13.2518 10.5952C13.2518 12.2656 13.2518 13.9432 13.2518 15.6136C15.5846 15.6136 17.9246 15.6136 20.2574 15.6136C19.9838 17.2192 19.0334 18.6808 17.6798 19.588C16.8302 20.1568 15.8582 20.5312 14.8502 20.704C13.835 20.8768 12.791 20.8984 11.783 20.6968C10.7534 20.4952 9.77422 20.0632 8.91742 19.4584C7.54942 18.5008 6.50542 17.0896 5.97262 15.5128C5.42542 13.9072 5.41822 12.1144 5.97262 10.5088C6.35422 9.37836 6.99502 8.32716 7.83742 7.47756C8.87422 6.41196 10.2206 5.65596 11.675 5.34636C12.9206 5.07996 14.231 5.13036 15.4478 5.49756C16.4846 5.81436 17.435 6.37596 18.2198 7.12476C19.0118 6.33996 19.7966 5.54796 20.5886 4.76316C20.999 4.33836 21.4382 3.93516 21.8414 3.49596C20.6462 2.38716 19.235 1.49436 17.7014 0.932762C14.951 -0.0968382 11.8334 -0.118439 9.05422 0.846362Z" fill="white"/>
<path d="M9.05459 0.84646C11.8338 -0.11834 14.9514 -0.0967395 17.7162 0.92566C19.2498 1.48726 20.6538 2.38006 21.8562 3.48886C21.453 3.92086 21.021 4.33126 20.6034 4.75606C19.8114 5.54086 19.0266 6.33286 18.2346 7.11766C17.4498 6.36886 16.4994 5.80006 15.4626 5.49046C14.2458 5.12326 12.9354 5.07286 11.6898 5.33926C10.2354 5.64886 8.88899 6.41206 7.85219 7.47046C7.00979 8.32006 6.36899 9.37126 5.98739 10.5017C4.58339 9.41446 3.17939 8.32006 1.77539 7.23286C3.25139 4.26646 5.92259 1.91926 9.05459 0.84646Z" fill="#E94435"/>
<path d="M0.651816 10.4584C0.875016 9.33519 1.25662 8.24799 1.76782 7.22559C3.17182 8.31279 4.57582 9.40719 5.97982 10.4944C5.42542 12.1 5.43262 13.8928 5.97982 15.4984C4.57582 16.5856 3.17182 17.68 1.76782 18.7672C0.479016 16.2328 0.0830158 13.252 0.651816 10.4584Z" fill="#F8BB15"/>
<path d="M13.259 10.5881C17.291 10.5881 21.323 10.5881 25.3622 10.5881C25.7654 12.8489 25.679 15.2033 25.0382 17.4137C24.4478 19.4369 23.339 21.3233 21.7838 22.7489C20.423 21.6905 19.055 20.6321 17.7014 19.5737C19.055 18.6737 20.0054 17.2049 20.279 15.5993C17.9462 15.5993 15.6062 15.5993 13.2734 15.5993C13.2518 13.9361 13.259 12.2657 13.259 10.5881Z" fill="#547DBE"/>
<path d="M1.76758 18.7744C3.17158 17.6872 4.57558 16.5928 5.97958 15.5056C6.51238 17.0896 7.55638 18.4936 8.92438 19.4512C9.78118 20.056 10.7604 20.4808 11.79 20.6896C12.798 20.8912 13.8492 20.8696 14.8572 20.6968C15.8652 20.524 16.8372 20.1496 17.6868 19.5808C19.0476 20.6392 20.4156 21.6976 21.7692 22.756C20.3004 24.1168 18.4572 25.0456 16.506 25.492C14.3532 25.9816 12.0708 25.996 9.92518 25.42C8.22598 24.9664 6.62758 24.16 5.25238 23.0656C3.80518 21.9064 2.60278 20.4304 1.76758 18.7744Z" fill="#34A751"/>
</svg>
